<svg version="1.1" id="Layer_1" xmlns="http://www.w3.org/2000/svg" xmlns:xlink="http://www.w3.org/1999/xlink" fill="white" width="400px" height="250px" viewBox="0 0 400 250" xml:space="preserve">
  <rect width="100%" height="100%" fill="white"/>
  <g transform="translate(100,15)">
    <!-- Shield Paths -->
    <path fill="none" opacity="1.000000" stroke="none" d="M119,201C79.357826,201,40.215649,201,1.036737,201C1.036737,134.399536,1.036737,67.799034,1.036737,1.099268C67.55867,1.099268,134.117538,1.099268,200.838196,1.099268C200.838196,67.666351,200.838196,134.333145,200.838196,201C173.799316,201,146.649658,201,119,201z M94.695389,14.000059C92.260521,14.331664,89.829559,14.695573,87.390167,14.989717C69.3545,17.164486,53.359158,24.170494,39.137821,35.365646C34.714981,38.847343,32.741985,43.058094,32.845173,49.061165C33.231461,71.53511,33.322353,94.025887,32.889675,116.498138C32.586777,132.229828,40.069702,144.468002,50.908901,153.860519C64.604256,165.727997,79.914383,175.783859,94.939598,186.016785C97.628647,187.84819,103.384911,188.386948,105.906403,186.739365C124.118423,174.839325,143.330536,164.063522,157.482773,146.93486C163.717636,139.388718,168.778671,130.916275,168.900543,120.836647C169.20253,95.86187,169.086639,70.880219,168.865448,45.903759C168.843353,43.405979,167.648514,40.012676,165.801041,38.597363C158.669678,33.134167,151.522934,27.336027,143.514938,23.448788C128.546906,16.183033,112.378403,13.255226,94.695389,14.000059z"/>
    <path fill="#70B332" opacity="1.000000" stroke="none" d="M95.174782,14.000048C112.378403,13.255226,128.546906,16.183033,143.514938,23.448788C151.522934,27.336027,158.669678,33.134167,165.801041,38.597363C167.648514,40.012676,168.843353,43.405979,168.865448,45.903759C169.086639,70.880219,169.20253,95.86187,168.900543,120.836647C168.778671,130.916275,163.717636,139.388718,157.482773,146.93486C143.330536,164.063522,124.118423,174.839325,105.906403,186.739365C103.384911,188.386948,97.628647,187.84819,94.939598,186.016785C79.914383,175.783859,64.604256,165.727997,50.908901,153.860519C40.069702,144.468002,32.586777,132.229828,32.889675,116.498138C33.322353,94.025887,33.231461,71.53511,32.845173,49.061165C32.741985,43.058094,34.714981,38.847343,39.137821,35.365646C53.359158,24.170494,69.3545,17.164486,87.390167,14.989717C89.829559,14.695573,92.260521,14.331664,95.174782,14.000048z"/>
    <text x="27%" y="215" font-family="Jersey 20" font-size="20" fill="black" text-anchor="middle" font-weight="bold">
      Intrusion<tspan fill="#70B332">Net</tspan>
    </text>
  </g>
</svg>
